<svg xmlns="http://www.w3.org/2000/svg" viewBox="0 0 512 512" role="img" aria-label="Smažka Scan icon">
  <defs>
    <radialGradient id="halo" cx="50%" cy="42%" r="62%">
      <stop stop-color="#253318"/>
      <stop offset="0.68" stop-color="#0b0f10"/>
      <stop offset="1" stop-color="#050708"/>
    </radialGradient>
    <linearGradient id="scan" x1="120" y1="128" x2="390" y2="390" gradientUnits="userSpaceOnUse">
      <stop stop-color="#d5ff98"/>
      <stop offset="0.5" stop-color="#b7ff53"/>
      <stop offset="1" stop-color="#5ee7f7"/>
    </linearGradient>
    <filter id="glow" x="-40%" y="-40%" width="180%" height="180%">
      <feGaussianBlur stdDeviation="11" result="blur"/>
      <feMerge>
        <feMergeNode in="blur"/>
        <feMergeNode in="SourceGraphic"/>
      </feMerge>
    </filter>
  </defs>
  <rect width="512" height="512" rx="118" fill="#050708"/>
  <rect x="28" y="28" width="456" height="456" rx="98" fill="url(#halo)" stroke="#2d382e" stroke-width="4"/>
  <path d="M108 184v-64h64M340 120h64v64M404 328v64h-64M172 392h-64v-64" fill="none" stroke="url(#scan)" stroke-width="24" stroke-linecap="round" stroke-linejoin="round" filter="url(#glow)"/>
  <path d="M132 256c33-52 76-78 124-78s91 26 124 78c-33 52-76 78-124 78s-91-26-124-78Z" fill="#0b0f10" stroke="#b7ff53" stroke-width="10"/>
  <circle cx="256" cy="256" r="57" fill="url(#scan)" filter="url(#glow)"/>
  <circle cx="256" cy="256" r="24" fill="#050708"/>
  <circle cx="273" cy="238" r="9" fill="#fff" opacity="0.92"/>
</svg>
