<svg xmlns="http://www.w3.org/2000/svg" viewBox="0 0 512 512" role="img" aria-label="Smažka Scan icon">
  <defs>
    <linearGradient id="bg" x1="56" y1="32" x2="456" y2="480" gradientUnits="userSpaceOnUse">
      <stop stop-color="#22d3ee"/>
      <stop offset="0.55" stop-color="#0f172a"/>
      <stop offset="1" stop-color="#34d399"/>
    </linearGradient>
    <filter id="glow" x="-30%" y="-30%" width="160%" height="160%">
      <feGaussianBlur stdDeviation="10" result="blur"/>
      <feMerge>
        <feMergeNode in="blur"/>
        <feMergeNode in="SourceGraphic"/>
      </feMerge>
    </filter>
  </defs>
  <rect width="512" height="512" rx="116" fill="#020617"/>
  <rect x="34" y="34" width="444" height="444" rx="96" fill="url(#bg)" opacity="0.86"/>
  <circle cx="256" cy="236" r="122" fill="#020617" opacity="0.78"/>
  <path d="M160 238c24-40 58-60 96-60s72 20 96 60c-24 40-58 60-96 60s-72-20-96-60Z" fill="#e2e8f0" opacity="0.94"/>
  <circle cx="256" cy="238" r="38" fill="#22d3ee" filter="url(#glow)"/>
  <circle cx="256" cy="238" r="17" fill="#020617"/>
  <path d="M122 122h70M122 122v70M390 122h-70M390 122v70M122 390h70M122 390v-70M390 390h-70M390 390v-70" fill="none" stroke="#d1fae5" stroke-width="24" stroke-linecap="round"/>
  <text x="256" y="428" text-anchor="middle" font-family="Arial, sans-serif" font-size="46" font-weight="900" fill="#f8fafc">SCAN</text>
</svg>
